<svg width="9" height="9" viewBox="0 0 9 9" fill="none" xmlns="http://www.w3.org/2000/svg">
<path d="M0.251595 0.251595C0.41274 0.0904987 0.63127 0 0.859128 0C1.08699 0 1.30552 0.0904987 1.46666 0.251595L4.50519 3.29012L7.54371 0.251595C7.70578 0.0950642 7.92285 0.00845044 8.14816 0.0104083C8.37346 0.0123662 8.58899 0.102739 8.74831 0.262062C8.90764 0.421386 8.99801 0.636912 8.99997 0.862221C9.00193 1.08753 8.91531 1.30459 8.75878 1.46666L5.72025 4.50519L8.75878 7.54371C8.91531 7.70578 9.00193 7.92285 8.99997 8.14816C8.99801 8.37346 8.90764 8.58899 8.74831 8.74831C8.58899 8.90764 8.37346 8.99801 8.14816 8.99997C7.92285 9.00193 7.70578 8.91531 7.54371 8.75878L4.50519 5.72025L1.46666 8.75878C1.30459 8.91531 1.08753 9.00193 0.862221 8.99997C0.636912 8.99801 0.421386 8.90764 0.262062 8.74831C0.102739 8.58899 0.0123662 8.37346 0.0104083 8.14816C0.00845044 7.92285 0.0950642 7.70578 0.251595 7.54371L3.29012 4.50519L0.251595 1.46666C0.0904987 1.30552 0 1.08699 0 0.859128C0 0.63127 0.0904987 0.41274 0.251595 0.251595Z" fill="#97BFB4"/>
</svg>
